<?xml version="1.0" encoding="UTF-8"?>
<svg version="1.1" xmlns="http://www.w3.org/2000/svg" width="256" height="256">
<path d="M0 0 C10.54365576 9.03059337 17.68588404 19.70200047 19.1484375 33.71484375 C19.24673979 35.15139774 19.33602708 36.58878349 19.3984375 38.02734375 C20.0790625 38.21296875 20.7596875 38.39859375 21.4609375 38.58984375 C27.77957658 41.68194372 31.22555788 46.40328641 34.2109375 52.65234375 C36.92409022 57.97735815 39.48717761 59.47741488 44.8671875 61.74609375 C51.2676571 64.98583762 55.24086233 70.89778913 57.8984375 77.40234375 C60.93911822 87.14881143 60.02501615 95.93991465 55.3984375 105.02734375 C50.90676596 112.25906004 44.3875171 116.36645256 36.3984375 119.02734375 C29.78668879 120.08561289 23.03702461 119.82546138 16.36328125 119.75390625 C14.4338023 119.75286653 12.50432123 119.75391166 10.57484436 119.75692749 C6.54948912 119.75674901 2.524943 119.73608925 -1.50024414 119.69970703 C-6.63335262 119.65430381 -11.76528347 119.65325992 -16.89853764 119.66674232 C-20.87684916 119.6734572 -24.85489715 119.66009645 -28.83315849 119.64048386 C-30.72478287 119.63284254 -32.6164367 119.63045711 -34.50807381 119.63365555 C-48.78670609 119.6376939 -59.69555591 118.78231679 -70.4375 108.3984375 C-77.34893992 100.82579484 -79.95649778 93.31983745 -79.9140625 83.15234375 C-79.93017578 82.38792969 -79.94628906 81.62351562 -79.96289062 80.8359375 C-79.9676449 75.23540058 -78.70986945 71.20024542 -76.6015625 66.02734375 C-76.72534625 63.11842558 -77.29435636 60.83320484 -78.32788086 58.12207031 C-80.53072944 52.23258912 -81.11195645 46.9768354 -81.0390625 40.71484375 C-81.03076416 39.79203613 -81.02246582 38.86922852 -81.01391602 37.91845703 C-80.67494297 24.1930645 -75.48448687 12.39002158 -65.5390625 2.77734375 C-46.72974433 -12.84885904 -19.90366499 -15.09211835 0 0 Z " fill="#251916" transform="translate(156.6015625,90.97265625)"/>
<path d="M0 0 C5.74796909 4.05562279 9.40937348 8.91169557 11.9375 15.4375 C14.22533953 20.42033694 18.60471648 21.60710808 23.38671875 23.73828125 C28.58272109 26.53399412 31.47304254 30.79412762 33.3125 36.3125 C34.19378266 44.58396722 33.50817195 51.58798665 28.3125 58.3125 C22.08544803 63.66711036 16.81001027 65.46122422 8.67919922 65.47363281 C7.90317856 65.47859772 7.1271579 65.48356262 6.32762146 65.48867798 C3.75746779 65.503294 1.18737593 65.51010236 -1.3828125 65.515625 C-3.17300416 65.52137903 -4.96319581 65.52713673 -6.75338745 65.53289795 C-10.51105028 65.5434078 -14.26869173 65.54924987 -18.02636719 65.55273438 C-22.82453265 65.55820445 -27.62241225 65.58220058 -32.42048836 65.61070633 C-36.12155968 65.6294028 -39.82256329 65.63454213 -43.52367783 65.63607025 C-45.29138621 65.63908394 -47.05909376 65.64706876 -48.82675552 65.66025543 C-60.26077504 65.73943014 -70.26731202 65.80583135 -79.6875 58.3125 C-85.65584734 52.34415266 -88.8430144 45.23147311 -89.1875 36.75 C-88.82065043 28.34796138 -85.262475 22.12932785 -79.62109375 16.0390625 C-74.24115058 11.23515365 -67.9430546 9.16528643 -60.8125 9.1875 C-59.93335937 9.18621094 -59.05421875 9.18492187 -58.1484375 9.18359375 C-55.6875 9.3125 -55.6875 9.3125 -52.4375 10.25 C-49.70971613 10.63169143 -49.70971613 10.63169143 -48.30859375 9.03125 C-47.31597196 7.79791066 -46.34041603 6.55071391 -45.37890625 5.29296875 C-33.71347625 -8.36609132 -14.56624002 -8.89485871 0 0 Z " fill="#FEFEFE" transform="translate(173.6875,136.6875)"/>
<path d="M0 0 C2.29932398 1.70017695 4.36811271 3.48064939 6.43359375 5.45703125 C7.38878906 6.3696875 7.38878906 6.3696875 8.36328125 7.30078125 C13.86726278 13.0646074 18.43359375 20.33921039 18.43359375 28.45703125 C17.8602832 28.43084717 17.28697266 28.40466309 16.69628906 28.37768555 C1.27162144 27.76670042 -10.56200886 28.7894872 -22.56640625 39.45703125 C-23.15292969 40.17761719 -23.73945312 40.89820313 -24.34375 41.640625 C-27.50376314 44.22306105 -29.61666825 43.72257751 -33.62890625 43.45703125 C-43.06131651 43.09415791 -50.40320982 45.18923438 -57.56640625 51.45703125 C-58.55640625 51.45703125 -59.54640625 51.45703125 -60.56640625 51.45703125 C-64.38203804 41.07788469 -64.50900011 30.77348518 -60.56640625 20.45703125 C-60.29828125 19.750625 -60.03015625 19.04421875 -59.75390625 18.31640625 C-54.82965573 7.14890953 -45.40764764 0.02675878 -34.31640625 -4.41796875 C-23.02796159 -7.73693047 -10.0570543 -6.04647862 0 0 Z " fill="#F6B52C" transform="translate(147.56640625,95.54296875)"/>
<path d="M0 0 C4.1353096 0.57701994 7.05323152 2.56654257 10.54296875 4.7734375 C11.21908203 5.1859375 11.89519531 5.5984375 12.59179688 6.0234375 C15.23970358 7.65697199 17.64833214 9.19130089 19.85546875 11.3984375 C19.48046875 14.5234375 19.48046875 14.5234375 18.85546875 17.3984375 C16.01402628 18.26763652 13.81930975 18.77435563 10.98632812 17.66943359 C8.96951966 16.54813304 7.03730289 15.34789202 5.10546875 14.0859375 C4.43386719 13.66892578 3.76226562 13.25191406 3.0703125 12.82226562 C0.44564273 11.17329975 -1.94672742 9.59624133 -4.14453125 7.3984375 C-4.39453125 4.8984375 -4.39453125 4.8984375 -4.14453125 2.3984375 C-2.14453125 0.3984375 -2.14453125 0.3984375 0 0 Z " fill="#221714" transform="translate(55.14453125,85.6015625)"/>
<path d="M0 0 C2 2 2 2 2.51953125 4.36328125 C2 7 2 7 -0.73828125 9.16796875 C-1.91890785 9.85987703 -3.11101001 10.53249005 -4.3125 11.1875 C-5.49612424 11.86843659 -6.67971894 12.54942452 -7.86328125 13.23046875 C-8.89839844 13.81441406 -9.93351562 14.39835938 -11 15 C-11.99 15.66 -12.98 16.32 -14 17 C-17.0625 17.25 -17.0625 17.25 -20 17 C-22 15 -22 15 -22.37890625 12.56640625 C-22 10 -22 10 -20.27734375 8.33984375 C-19.50519531 7.87707031 -18.73304687 7.41429687 -17.9375 6.9375 C-17.11507812 6.43863281 -16.29265625 5.93976563 -15.4453125 5.42578125 C-14.63835938 4.95527344 -13.83140625 4.48476562 -13 4 C-12.03707031 3.37158203 -12.03707031 3.37158203 -11.0546875 2.73046875 C-7.2581679 0.32146641 -4.48265741 -0.62548708 0 0 Z " fill="#221714" transform="translate(73,159)"/>
<path d="M0 0 C1 1 1 1 1.5078125 3.76171875 C1 7 1 7 -2.0703125 9.51953125 C-3.4086129 10.30684488 -4.76105323 11.07050274 -6.125 11.8125 C-6.79015625 12.20630859 -7.4553125 12.60011719 -8.140625 13.00585938 C-12.02239211 15.22455568 -15.44203692 16.80388586 -20 17 C-22 15 -22 15 -22.63671875 12.21484375 C-21.90025903 8.49639988 -21.46117688 8.22343037 -18.45703125 6.19140625 C-16.9222718 5.29181132 -15.37323035 4.41624375 -13.8125 3.5625 C-13.04357422 3.10423828 -12.27464844 2.64597656 -11.48242188 2.17382812 C-4.40281533 -1.85516685 -4.40281533 -1.85516685 0 0 Z " fill="#221714" transform="translate(199,87)"/>
<path d="M0 0 C2.82421875 0.5703125 2.82421875 0.5703125 4.82421875 2.5703125 C4.59293715 7.9456159 2.30953219 11.93083873 -0.36328125 16.4453125 C-0.73775391 17.13367188 -1.11222656 17.82203125 -1.49804688 18.53125 C-2.65625 20.5 -2.65625 20.5 -5.17578125 23.5703125 C-8.3515625 24.140625 -8.3515625 24.140625 -11.17578125 23.5703125 C-11.83578125 22.9103125 -12.49578125 22.2503125 -13.17578125 21.5703125 C-12.94449965 16.1950091 -10.66109469 12.20978627 -7.98828125 7.6953125 C-7.61380859 7.00695313 -7.23933594 6.31859375 -6.85351562 5.609375 C-4.86486876 2.22901069 -3.95725365 0.71065072 0 0 Z " fill="#221714" transform="translate(166.17578125,56.4296875)"/>
<path d="M0 0 C3.3125 0.625 3.3125 0.625 4.90234375 2.38671875 C6.47857527 4.74906064 7.90879246 7.15668281 9.3125 9.625 C9.93898438 10.58792969 9.93898438 10.58792969 10.578125 11.5703125 C12.99978915 15.37334845 13.84721094 18.13342811 13.3125 22.625 C12.3125 23.625 12.3125 23.625 9.625 24.25 C6.3125 23.625 6.3125 23.625 4.72265625 21.86328125 C3.14642473 19.50093936 1.71620754 17.09331719 0.3125 14.625 C-0.10515625 13.98304687 -0.5228125 13.34109375 -0.953125 12.6796875 C-3.37478915 8.87665155 -4.22221094 6.11657189 -3.6875 1.625 C-2.6875 0.625 -2.6875 0.625 0 0 Z " fill="#221714" transform="translate(84.6875,56.375)"/>
<path d="M0 0 C1.02996094 -0.00128906 2.05992187 -0.00257812 3.12109375 -0.00390625 C4.74724609 0.00189453 4.74724609 0.00189453 6.40625 0.0078125 C7.49035156 0.00394531 8.57445312 0.00007813 9.69140625 -0.00390625 C10.72136719 -0.00261719 11.75132812 -0.00132813 12.8125 0 C14.24045898 0.00169189 14.24045898 0.00169189 15.69726562 0.00341797 C17.90625 0.1328125 17.90625 0.1328125 18.90625 1.1328125 C19.09375 4.0703125 19.09375 4.0703125 18.90625 7.1328125 C15.91253497 10.12652753 13.10130771 9.42537598 9.0078125 9.45507812 C7.98429688 9.45185547 6.96078125 9.44863281 5.90625 9.4453125 C4.37097656 9.46948242 4.37097656 9.46948242 2.8046875 9.49414062 C1.33902344 9.49510742 1.33902344 9.49510742 -0.15625 9.49609375 C-1.05472656 9.49907471 -1.95320312 9.50205566 -2.87890625 9.50512695 C-3.97525391 9.3208313 -3.97525391 9.3208313 -5.09375 9.1328125 C-7.09375 6.1328125 -7.09375 6.1328125 -6.78125 3.5078125 C-5.57777901 -0.64963273 -4.0729154 0.00482573 0 0 Z " fill="#221814" transform="translate(192.09375,126.8671875)"/>
<path d="M0 0 C1.02996094 -0.00128906 2.05992188 -0.00257812 3.12109375 -0.00390625 C4.74724609 0.00189453 4.74724609 0.00189453 6.40625 0.0078125 C7.49035156 0.00394531 8.57445312 0.00007813 9.69140625 -0.00390625 C10.72136719 -0.00261719 11.75132813 -0.00132813 12.8125 0 C14.24045898 0.00169189 14.24045898 0.00169189 15.69726562 0.00341797 C17.90625 0.1328125 17.90625 0.1328125 18.90625 1.1328125 C19.09375 4.0703125 19.09375 4.0703125 18.90625 7.1328125 C15.91253497 10.12652753 13.10130771 9.42537598 9.0078125 9.45507812 C7.98429687 9.45185547 6.96078125 9.44863281 5.90625 9.4453125 C4.37097656 9.46948242 4.37097656 9.46948242 2.8046875 9.49414062 C1.33902344 9.49510742 1.33902344 9.49510742 -0.15625 9.49609375 C-1.05472656 9.49907471 -1.95320313 9.50205566 -2.87890625 9.50512695 C-3.97525391 9.3208313 -3.97525391 9.3208313 -5.09375 9.1328125 C-7.09375 6.1328125 -7.09375 6.1328125 -6.78125 3.5078125 C-5.57777901 -0.64963273 -4.0729154 0.00482573 0 0 Z " fill="#221714" transform="translate(47.09375,126.8671875)"/>
<path d="M0 0 C2.9375 0.1875 2.9375 0.1875 3.9375 1.1875 C4.18958722 4.99338144 4.12272344 8.81175456 4.125 12.625 C4.13724609 13.70072266 4.14949219 14.77644531 4.16210938 15.88476562 C4.16500977 17.42487305 4.16500977 17.42487305 4.16796875 18.99609375 C4.17207764 19.94282959 4.17618652 20.88956543 4.18041992 21.86499023 C3.9375 24.1875 3.9375 24.1875 1.9375 26.1875 C-3.63068182 25.61931818 -3.63068182 25.61931818 -5.0625 24.1875 C-5.31406269 20.54850825 -5.24772226 16.89666327 -5.25 13.25 C-5.26224609 12.22197266 -5.27449219 11.19394531 -5.28710938 10.13476562 C-5.28904297 9.15314453 -5.29097656 8.17152344 -5.29296875 7.16015625 C-5.29707764 6.25531494 -5.30118652 5.35047363 -5.30541992 4.41821289 C-4.89929125 0.68876803 -3.60698623 0.22083589 0 0 Z " fill="#231714" transform="translate(126.0625,45.8125)"/>
</svg>
